<svg width="10" height="10" viewBox="0 0 10 10" fill="none" xmlns="http://www.w3.org/2000/svg">
<path d="M9.02869 1.9521C8.94588 1.72771 8.81377 1.5246 8.64211 1.35788C8.47539 1.18622 8.27242 1.05411 8.04788 0.971298C7.86578 0.900574 7.59222 0.816391 7.08836 0.793457C6.5433 0.7686 6.37988 0.763245 5 0.763245C3.61998 0.763245 3.45656 0.768463 2.91164 0.79332C2.40778 0.816391 2.13408 0.900574 1.95212 0.971298C1.72758 1.05411 1.52448 1.18622 1.35789 1.35788C1.18623 1.5246 1.05412 1.72757 0.971176 1.9521C0.900452 2.1342 0.816269 2.4079 0.793335 2.91176C0.768478 3.45668 0.763123 3.6201 0.763123 5.00012C0.763123 6.38 0.768478 6.54343 0.793335 7.08849C0.816269 7.59235 0.900452 7.86591 0.971176 8.048C1.05412 8.27254 1.1861 8.47551 1.35776 8.64223C1.52448 8.81389 1.72745 8.946 1.95198 9.02881C2.13408 9.09967 2.40778 9.18385 2.91164 9.20679C3.45656 9.23164 3.61984 9.23686 4.99986 9.23686C6.38002 9.23686 6.54344 9.23164 7.08823 9.20679C7.59209 9.18385 7.86578 9.09967 8.04788 9.02881C8.4986 8.85495 8.85483 8.49872 9.02869 8.048C9.09941 7.86591 9.18359 7.59235 9.20667 7.08849C9.23152 6.54343 9.23674 6.38 9.23674 5.00012C9.23674 3.6201 9.23152 3.45668 9.20667 2.91176C9.18373 2.4079 9.09955 2.1342 9.02869 1.9521ZM5 7.65373C3.53429 7.65373 2.34612 6.4657 2.34612 4.99998C2.34612 3.53427 3.53429 2.34624 5 2.34624C6.46558 2.34624 7.65375 3.53427 7.65375 4.99998C7.65375 6.4657 6.46558 7.65373 5 7.65373ZM7.75867 2.8615C7.41617 2.8615 7.13849 2.58382 7.13849 2.24132C7.13849 1.89882 7.41617 1.62114 7.75867 1.62114C8.10117 1.62114 8.37885 1.89882 8.37885 2.24132C8.37871 2.58382 8.10117 2.8615 7.75867 2.8615Z" fill="#4D46FA"/>
</svg>
